<mxfile host="65bd71144e" pages="4">
    <diagram name="MER " id="0nAKLI74DU9Xe9XL_cI6">
        <mxGraphModel dx="1408" dy="913" grid="1" gridSize="10" guides="1" tooltips="1" connect="1" arrows="1" fold="1" page="0" pageScale="1" pageWidth="827" pageHeight="1169" math="0" shadow="0">
            <root>
                <mxCell id="GuQFnasYdeO0e7b2p5Jr-0"/>
                <mxCell id="GuQFnasYdeO0e7b2p5Jr-1" parent="GuQFnasYdeO0e7b2p5Jr-0"/>
                <mxCell id="XPi1vamkfG7UqXMdP8GN-36" style="edgeStyle=orthogonalEdgeStyle;rounded=0;orthogonalLoop=1;jettySize=auto;html=1;entryX=1;entryY=0.5;entryDx=0;entryDy=0;endArrow=none;endFill=0;startArrow=ERone;startFill=0;" parent="GuQFnasYdeO0e7b2p5Jr-1" source="GuQFnasYdeO0e7b2p5Jr-2" target="XPi1vamkfG7UqXMdP8GN-35" edge="1">
                    <mxGeometry relative="1" as="geometry"/>
                </mxCell>
                <mxCell id="GuQFnasYdeO0e7b2p5Jr-2" value="Document_type" style="rounded=1;whiteSpace=wrap;html=1;fillColor=#00ff00;strokeColor=#36393d;" parent="GuQFnasYdeO0e7b2p5Jr-1" vertex="1">
                    <mxGeometry x="670" y="373" width="120" height="60" as="geometry"/>
                </mxCell>
                <mxCell id="GuQFnasYdeO0e7b2p5Jr-3" value="User_status" style="rounded=1;whiteSpace=wrap;html=1;fillColor=#ff00ff;strokeColor=#36393d;fontColor=#FFFFFF;" parent="GuQFnasYdeO0e7b2p5Jr-1" vertex="1">
                    <mxGeometry x="-250" y="210" width="120" height="60" as="geometry"/>
                </mxCell>
                <mxCell id="GuQFnasYdeO0e7b2p5Jr-5" style="edgeStyle=orthogonalEdgeStyle;rounded=0;orthogonalLoop=1;jettySize=auto;html=1;entryX=0;entryY=0.5;entryDx=0;entryDy=0;endArrow=none;endFill=0;startArrow=ERone;startFill=0;" parent="GuQFnasYdeO0e7b2p5Jr-1" source="GuQFnasYdeO0e7b2p5Jr-6" target="GuQFnasYdeO0e7b2p5Jr-37" edge="1">
                    <mxGeometry relative="1" as="geometry"/>
                </mxCell>
                <mxCell id="GuQFnasYdeO0e7b2p5Jr-6" value="Role" style="rounded=1;whiteSpace=wrap;html=1;fillColor=#6a00ff;strokeColor=#3700CC;fontColor=#ffffff;" parent="GuQFnasYdeO0e7b2p5Jr-1" vertex="1">
                    <mxGeometry x="-250" y="315" width="120" height="60" as="geometry"/>
                </mxCell>
                <mxCell id="XPi1vamkfG7UqXMdP8GN-60" style="edgeStyle=orthogonalEdgeStyle;rounded=0;orthogonalLoop=1;jettySize=auto;html=1;entryX=0;entryY=0.5;entryDx=0;entryDy=0;endArrow=none;endFill=0;startArrow=ERone;startFill=0;" parent="GuQFnasYdeO0e7b2p5Jr-1" source="GuQFnasYdeO0e7b2p5Jr-13" target="XPi1vamkfG7UqXMdP8GN-46" edge="1">
                    <mxGeometry relative="1" as="geometry"/>
                </mxCell>
                <mxCell id="GuQFnasYdeO0e7b2p5Jr-13" value="Elections" style="rounded=1;whiteSpace=wrap;html=1;fillColor=#6aa84f;strokeColor=#2D7600;fontColor=#ffffff;" parent="GuQFnasYdeO0e7b2p5Jr-1" vertex="1">
                    <mxGeometry x="-143" y="833" width="120" height="60" as="geometry"/>
                </mxCell>
                <mxCell id="XPi1vamkfG7UqXMdP8GN-82" style="edgeStyle=orthogonalEdgeStyle;rounded=0;orthogonalLoop=1;jettySize=auto;html=1;entryX=0;entryY=0.5;entryDx=0;entryDy=0;endArrow=none;endFill=0;" parent="GuQFnasYdeO0e7b2p5Jr-1" source="GuQFnasYdeO0e7b2p5Jr-15" target="GuQFnasYdeO0e7b2p5Jr-164" edge="1">
                    <mxGeometry relative="1" as="geometry">
                        <Array as="points">
                            <mxPoint x="789" y="-50"/>
                            <mxPoint x="789" y="83"/>
                        </Array>
                    </mxGeometry>
                </mxCell>
                <mxCell id="XPi1vamkfG7UqXMdP8GN-83" style="edgeStyle=orthogonalEdgeStyle;rounded=0;orthogonalLoop=1;jettySize=auto;html=1;exitX=0.5;exitY=1;exitDx=0;exitDy=0;entryX=0;entryY=0.5;entryDx=0;entryDy=0;endArrow=none;endFill=0;" parent="GuQFnasYdeO0e7b2p5Jr-1" source="GuQFnasYdeO0e7b2p5Jr-15" target="GuQFnasYdeO0e7b2p5Jr-162" edge="1">
                    <mxGeometry relative="1" as="geometry">
                        <Array as="points">
                            <mxPoint x="750" y="-20"/>
                            <mxPoint x="750" y="142"/>
                        </Array>
                    </mxGeometry>
                </mxCell>
                <mxCell id="GuQFnasYdeO0e7b2p5Jr-15" value="Course" style="rounded=1;whiteSpace=wrap;html=1;fillColor=#b45f06;strokeColor=#6D1F00;fontColor=#ffffff;" parent="GuQFnasYdeO0e7b2p5Jr-1" vertex="1">
                    <mxGeometry x="660" y="-80" width="120" height="60" as="geometry"/>
                </mxCell>
                <mxCell id="GuQFnasYdeO0e7b2p5Jr-16" style="edgeStyle=orthogonalEdgeStyle;rounded=0;orthogonalLoop=1;jettySize=auto;html=1;entryX=1;entryY=0.5;entryDx=0;entryDy=0;endArrow=none;endFill=0;startArrow=ERone;startFill=0;" parent="GuQFnasYdeO0e7b2p5Jr-1" source="GuQFnasYdeO0e7b2p5Jr-18" target="GuQFnasYdeO0e7b2p5Jr-41" edge="1">
                    <mxGeometry relative="1" as="geometry"/>
                </mxCell>
                <mxCell id="GuQFnasYdeO0e7b2p5Jr-17" style="edgeStyle=orthogonalEdgeStyle;rounded=0;orthogonalLoop=1;jettySize=auto;html=1;entryX=1;entryY=0.5;entryDx=0;entryDy=0;endArrow=none;endFill=0;startArrow=ERone;startFill=0;" parent="GuQFnasYdeO0e7b2p5Jr-1" source="GuQFnasYdeO0e7b2p5Jr-18" target="GuQFnasYdeO0e7b2p5Jr-37" edge="1">
                    <mxGeometry relative="1" as="geometry">
                        <Array as="points">
                            <mxPoint x="140" y="345"/>
                        </Array>
                    </mxGeometry>
                </mxCell>
                <mxCell id="GuQFnasYdeO0e7b2p5Jr-18" value="User" style="rounded=1;whiteSpace=wrap;html=1;fillColor=#00ffff;strokeColor=#6c8ebf;" parent="GuQFnasYdeO0e7b2p5Jr-1" vertex="1">
                    <mxGeometry x="80" y="210" width="120" height="60" as="geometry"/>
                </mxCell>
                <mxCell id="XPi1vamkfG7UqXMdP8GN-37" style="edgeStyle=orthogonalEdgeStyle;rounded=0;orthogonalLoop=1;jettySize=auto;html=1;entryX=0.5;entryY=0;entryDx=0;entryDy=0;endArrow=none;endFill=0;startArrow=ERone;startFill=0;exitX=0.75;exitY=1;exitDx=0;exitDy=0;" parent="GuQFnasYdeO0e7b2p5Jr-1" source="GuQFnasYdeO0e7b2p5Jr-27" target="XPi1vamkfG7UqXMdP8GN-35" edge="1">
                    <mxGeometry relative="1" as="geometry"/>
                </mxCell>
                <mxCell id="XPi1vamkfG7UqXMdP8GN-38" style="edgeStyle=orthogonalEdgeStyle;rounded=0;orthogonalLoop=1;jettySize=auto;html=1;exitX=0.25;exitY=1;exitDx=0;exitDy=0;entryX=0.5;entryY=0;entryDx=0;entryDy=0;startArrow=ERmany;startFill=0;endArrow=none;endFill=0;" parent="GuQFnasYdeO0e7b2p5Jr-1" source="GuQFnasYdeO0e7b2p5Jr-27" target="GuQFnasYdeO0e7b2p5Jr-54" edge="1">
                    <mxGeometry relative="1" as="geometry">
                        <Array as="points">
                            <mxPoint x="290" y="310"/>
                            <mxPoint x="250" y="310"/>
                            <mxPoint x="250" y="420"/>
                            <mxPoint x="110" y="420"/>
                        </Array>
                    </mxGeometry>
                </mxCell>
                <mxCell id="XPi1vamkfG7UqXMdP8GN-61" style="edgeStyle=orthogonalEdgeStyle;rounded=0;orthogonalLoop=1;jettySize=auto;html=1;entryX=1;entryY=0;entryDx=0;entryDy=0;endArrow=none;endFill=0;startArrow=ERone;startFill=0;" parent="GuQFnasYdeO0e7b2p5Jr-1" source="GuQFnasYdeO0e7b2p5Jr-27" target="XPi1vamkfG7UqXMdP8GN-46" edge="1">
                    <mxGeometry relative="1" as="geometry">
                        <Array as="points">
                            <mxPoint x="320" y="530"/>
                            <mxPoint x="250" y="530"/>
                            <mxPoint x="250" y="815"/>
                        </Array>
                    </mxGeometry>
                </mxCell>
                <mxCell id="XPi1vamkfG7UqXMdP8GN-70" style="edgeStyle=orthogonalEdgeStyle;rounded=0;orthogonalLoop=1;jettySize=auto;html=1;entryX=0;entryY=0.5;entryDx=0;entryDy=0;endArrow=none;endFill=0;startArrow=ERone;startFill=0;exitX=0.75;exitY=0;exitDx=0;exitDy=0;" parent="GuQFnasYdeO0e7b2p5Jr-1" source="GuQFnasYdeO0e7b2p5Jr-27" target="XPi1vamkfG7UqXMdP8GN-69" edge="1">
                    <mxGeometry relative="1" as="geometry">
                        <Array as="points">
                            <mxPoint x="350" y="190"/>
                            <mxPoint x="410" y="190"/>
                            <mxPoint x="410" y="41"/>
                        </Array>
                    </mxGeometry>
                </mxCell>
                <mxCell id="XPi1vamkfG7UqXMdP8GN-75" style="edgeStyle=orthogonalEdgeStyle;rounded=0;orthogonalLoop=1;jettySize=auto;html=1;entryX=0;entryY=0.5;entryDx=0;entryDy=0;endArrow=none;endFill=0;" parent="GuQFnasYdeO0e7b2p5Jr-1" source="GuQFnasYdeO0e7b2p5Jr-27" target="GuQFnasYdeO0e7b2p5Jr-84" edge="1">
                    <mxGeometry relative="1" as="geometry">
                        <Array as="points">
                            <mxPoint x="520" y="241"/>
                            <mxPoint x="520" y="21"/>
                        </Array>
                    </mxGeometry>
                </mxCell>
                <mxCell id="XPi1vamkfG7UqXMdP8GN-76" style="edgeStyle=orthogonalEdgeStyle;rounded=0;orthogonalLoop=1;jettySize=auto;html=1;entryX=0;entryY=0.5;entryDx=0;entryDy=0;endArrow=none;endFill=0;" parent="GuQFnasYdeO0e7b2p5Jr-1" source="GuQFnasYdeO0e7b2p5Jr-27" target="GuQFnasYdeO0e7b2p5Jr-149" edge="1">
                    <mxGeometry relative="1" as="geometry">
                        <Array as="points">
                            <mxPoint x="520" y="241"/>
                            <mxPoint x="520" y="87"/>
                        </Array>
                    </mxGeometry>
                </mxCell>
                <mxCell id="XPi1vamkfG7UqXMdP8GN-77" style="edgeStyle=orthogonalEdgeStyle;rounded=0;orthogonalLoop=1;jettySize=auto;html=1;entryX=0;entryY=0.5;entryDx=0;entryDy=0;endArrow=none;endFill=0;" parent="GuQFnasYdeO0e7b2p5Jr-1" source="GuQFnasYdeO0e7b2p5Jr-27" target="GuQFnasYdeO0e7b2p5Jr-150" edge="1">
                    <mxGeometry relative="1" as="geometry">
                        <Array as="points">
                            <mxPoint x="520" y="241"/>
                            <mxPoint x="520" y="154"/>
                        </Array>
                    </mxGeometry>
                </mxCell>
                <mxCell id="XPi1vamkfG7UqXMdP8GN-78" style="edgeStyle=orthogonalEdgeStyle;rounded=0;orthogonalLoop=1;jettySize=auto;html=1;entryX=0;entryY=0.5;entryDx=0;entryDy=0;endArrow=none;endFill=0;" parent="GuQFnasYdeO0e7b2p5Jr-1" source="GuQFnasYdeO0e7b2p5Jr-27" target="GuQFnasYdeO0e7b2p5Jr-151" edge="1">
                    <mxGeometry relative="1" as="geometry">
                        <Array as="points">
                            <mxPoint x="540" y="241"/>
                            <mxPoint x="540" y="226"/>
                        </Array>
                    </mxGeometry>
                </mxCell>
                <mxCell id="XPi1vamkfG7UqXMdP8GN-79" style="edgeStyle=orthogonalEdgeStyle;rounded=0;orthogonalLoop=1;jettySize=auto;html=1;entryX=0;entryY=0.5;entryDx=0;entryDy=0;endArrow=none;endFill=0;" parent="GuQFnasYdeO0e7b2p5Jr-1" source="GuQFnasYdeO0e7b2p5Jr-27" target="GuQFnasYdeO0e7b2p5Jr-158" edge="1">
                    <mxGeometry relative="1" as="geometry">
                        <Array as="points">
                            <mxPoint x="520" y="241"/>
                            <mxPoint x="520" y="290"/>
                        </Array>
                    </mxGeometry>
                </mxCell>
                <mxCell id="XPi1vamkfG7UqXMdP8GN-80" style="edgeStyle=orthogonalEdgeStyle;rounded=0;orthogonalLoop=1;jettySize=auto;html=1;entryX=0;entryY=0.5;entryDx=0;entryDy=0;endArrow=none;endFill=0;" parent="GuQFnasYdeO0e7b2p5Jr-1" source="GuQFnasYdeO0e7b2p5Jr-27" target="GuQFnasYdeO0e7b2p5Jr-160" edge="1">
                    <mxGeometry relative="1" as="geometry">
                        <Array as="points">
                            <mxPoint x="520" y="241"/>
                            <mxPoint x="520" y="345"/>
                        </Array>
                    </mxGeometry>
                </mxCell>
                <mxCell id="GuQFnasYdeO0e7b2p5Jr-27" value="Student" style="rounded=1;whiteSpace=wrap;html=1;fillColor=#ffff00;strokeColor=#B09500;fontColor=#000000;" parent="GuQFnasYdeO0e7b2p5Jr-1" vertex="1">
                    <mxGeometry x="260" y="211" width="120" height="60" as="geometry"/>
                </mxCell>
                <mxCell id="GuQFnasYdeO0e7b2p5Jr-30" value="Candidate" style="rounded=1;whiteSpace=wrap;html=1;fillColor=#ff9900;strokeColor=#BD7000;fontColor=#000000;" parent="GuQFnasYdeO0e7b2p5Jr-1" vertex="1">
                    <mxGeometry x="320" y="570" width="120" height="60" as="geometry"/>
                </mxCell>
                <mxCell id="GuQFnasYdeO0e7b2p5Jr-31" value="Vote" style="rounded=1;whiteSpace=wrap;html=1;fillColor=#980000;strokeColor=#B20000;fontColor=#ffffff;" parent="GuQFnasYdeO0e7b2p5Jr-1" vertex="1">
                    <mxGeometry x="30" y="549.5" width="120" height="60" as="geometry"/>
                </mxCell>
                <mxCell id="GuQFnasYdeO0e7b2p5Jr-36" style="edgeStyle=orthogonalEdgeStyle;rounded=0;orthogonalLoop=1;jettySize=auto;html=1;entryX=1;entryY=0.5;entryDx=0;entryDy=0;endArrow=ERone;endFill=0;" parent="GuQFnasYdeO0e7b2p5Jr-1" source="GuQFnasYdeO0e7b2p5Jr-41" target="GuQFnasYdeO0e7b2p5Jr-3" edge="1">
                    <mxGeometry relative="1" as="geometry"/>
                </mxCell>
                <mxCell id="XPi1vamkfG7UqXMdP8GN-10" style="edgeStyle=orthogonalEdgeStyle;rounded=0;orthogonalLoop=1;jettySize=auto;html=1;entryX=0;entryY=1;entryDx=0;entryDy=0;endArrow=ERone;endFill=0;" parent="GuQFnasYdeO0e7b2p5Jr-1" source="GuQFnasYdeO0e7b2p5Jr-37" target="GuQFnasYdeO0e7b2p5Jr-27" edge="1">
                    <mxGeometry relative="1" as="geometry">
                        <Array as="points">
                            <mxPoint x="-30" y="400"/>
                            <mxPoint x="220" y="400"/>
                            <mxPoint x="220" y="271"/>
                        </Array>
                    </mxGeometry>
                </mxCell>
                <mxCell id="GuQFnasYdeO0e7b2p5Jr-37" value="BELONGS" style="rhombus;whiteSpace=wrap;html=1;" parent="GuQFnasYdeO0e7b2p5Jr-1" vertex="1">
                    <mxGeometry x="-70" y="305" width="80" height="80" as="geometry"/>
                </mxCell>
                <mxCell id="GuQFnasYdeO0e7b2p5Jr-41" value="HAS" style="rhombus;whiteSpace=wrap;html=1;" parent="GuQFnasYdeO0e7b2p5Jr-1" vertex="1">
                    <mxGeometry x="-70" y="201" width="80" height="80" as="geometry"/>
                </mxCell>
                <mxCell id="XPi1vamkfG7UqXMdP8GN-39" style="edgeStyle=orthogonalEdgeStyle;rounded=0;orthogonalLoop=1;jettySize=auto;html=1;exitX=0.5;exitY=1;exitDx=0;exitDy=0;entryX=0.5;entryY=0;entryDx=0;entryDy=0;endArrow=ERone;endFill=0;" parent="GuQFnasYdeO0e7b2p5Jr-1" source="GuQFnasYdeO0e7b2p5Jr-54" target="GuQFnasYdeO0e7b2p5Jr-31" edge="1">
                    <mxGeometry relative="1" as="geometry"/>
                </mxCell>
                <mxCell id="GuQFnasYdeO0e7b2p5Jr-54" value="MAKES" style="rhombus;whiteSpace=wrap;html=1;" parent="GuQFnasYdeO0e7b2p5Jr-1" vertex="1">
                    <mxGeometry x="70" y="442" width="80" height="80" as="geometry"/>
                </mxCell>
                <mxCell id="GuQFnasYdeO0e7b2p5Jr-61" style="edgeStyle=orthogonalEdgeStyle;rounded=0;orthogonalLoop=1;jettySize=auto;html=1;entryX=0.75;entryY=0;entryDx=0;entryDy=0;endArrow=none;endFill=0;" parent="GuQFnasYdeO0e7b2p5Jr-1" source="GuQFnasYdeO0e7b2p5Jr-62" target="GuQFnasYdeO0e7b2p5Jr-2" edge="1">
                    <mxGeometry relative="1" as="geometry"/>
                </mxCell>
                <mxCell id="GuQFnasYdeO0e7b2p5Jr-62" value="&lt;u&gt;Document_type_id&lt;/u&gt;" style="ellipse;whiteSpace=wrap;html=1;fillColor=#00ff00;strokeColor=#36393d;" parent="GuQFnasYdeO0e7b2p5Jr-1" vertex="1">
                    <mxGeometry x="810" y="220" width="140" height="40" as="geometry"/>
                </mxCell>
                <mxCell id="GuQFnasYdeO0e7b2p5Jr-65" style="edgeStyle=orthogonalEdgeStyle;rounded=0;orthogonalLoop=1;jettySize=auto;html=1;entryX=0.5;entryY=0;entryDx=0;entryDy=0;endArrow=none;endFill=0;exitX=1;exitY=0.5;exitDx=0;exitDy=0;" parent="GuQFnasYdeO0e7b2p5Jr-1" source="GuQFnasYdeO0e7b2p5Jr-66" target="GuQFnasYdeO0e7b2p5Jr-18" edge="1">
                    <mxGeometry relative="1" as="geometry">
                        <mxPoint x="120" y="201" as="targetPoint"/>
                    </mxGeometry>
                </mxCell>
                <mxCell id="GuQFnasYdeO0e7b2p5Jr-66" value="&lt;u&gt;User_id&lt;/u&gt;" style="ellipse;whiteSpace=wrap;html=1;fillColor=#00ffff;strokeColor=#6c8ebf;" parent="GuQFnasYdeO0e7b2p5Jr-1" vertex="1">
                    <mxGeometry x="-100" y="20" width="140" height="40" as="geometry"/>
                </mxCell>
                <mxCell id="GuQFnasYdeO0e7b2p5Jr-67" style="edgeStyle=orthogonalEdgeStyle;rounded=0;orthogonalLoop=1;jettySize=auto;html=1;entryX=0.25;entryY=0;entryDx=0;entryDy=0;endArrow=none;endFill=0;" parent="GuQFnasYdeO0e7b2p5Jr-1" source="GuQFnasYdeO0e7b2p5Jr-68" target="GuQFnasYdeO0e7b2p5Jr-3" edge="1">
                    <mxGeometry relative="1" as="geometry">
                        <mxPoint x="-230" y="200" as="targetPoint"/>
                    </mxGeometry>
                </mxCell>
                <mxCell id="GuQFnasYdeO0e7b2p5Jr-68" value="&lt;u&gt;User_status_id&lt;/u&gt;" style="ellipse;whiteSpace=wrap;html=1;fillColor=#ff00ff;strokeColor=#b85450;fontColor=#FFFFFF;" parent="GuQFnasYdeO0e7b2p5Jr-1" vertex="1">
                    <mxGeometry x="-290" y="120" width="140" height="40" as="geometry"/>
                </mxCell>
                <mxCell id="GuQFnasYdeO0e7b2p5Jr-71" style="edgeStyle=orthogonalEdgeStyle;rounded=0;orthogonalLoop=1;jettySize=auto;html=1;endArrow=none;endFill=0;exitX=1;exitY=0.5;exitDx=0;exitDy=0;entryX=0.5;entryY=1;entryDx=0;entryDy=0;" parent="GuQFnasYdeO0e7b2p5Jr-1" source="GuQFnasYdeO0e7b2p5Jr-72" target="GuQFnasYdeO0e7b2p5Jr-6" edge="1">
                    <mxGeometry relative="1" as="geometry">
                        <mxPoint x="-290" y="500" as="targetPoint"/>
                        <Array as="points">
                            <mxPoint x="-190" y="422"/>
                        </Array>
                    </mxGeometry>
                </mxCell>
                <mxCell id="GuQFnasYdeO0e7b2p5Jr-72" value="&lt;u&gt;Role_id&lt;/u&gt;" style="ellipse;whiteSpace=wrap;html=1;fillColor=#6a00ff;strokeColor=#3700CC;fontColor=#ffffff;" parent="GuQFnasYdeO0e7b2p5Jr-1" vertex="1">
                    <mxGeometry x="-457" y="415" width="140" height="40" as="geometry"/>
                </mxCell>
                <mxCell id="XPi1vamkfG7UqXMdP8GN-52" style="edgeStyle=orthogonalEdgeStyle;rounded=0;orthogonalLoop=1;jettySize=auto;html=1;entryX=0.25;entryY=0;entryDx=0;entryDy=0;endArrow=none;endFill=0;" parent="GuQFnasYdeO0e7b2p5Jr-1" source="GuQFnasYdeO0e7b2p5Jr-76" target="GuQFnasYdeO0e7b2p5Jr-31" edge="1">
                    <mxGeometry relative="1" as="geometry"/>
                </mxCell>
                <mxCell id="GuQFnasYdeO0e7b2p5Jr-76" value="&lt;u&gt;Vote_id&lt;/u&gt;" style="ellipse;whiteSpace=wrap;html=1;fillColor=#980000;strokeColor=#A50040;fontColor=#ffffff;" parent="GuQFnasYdeO0e7b2p5Jr-1" vertex="1">
                    <mxGeometry x="-338" y="465.5" width="140" height="40" as="geometry"/>
                </mxCell>
                <mxCell id="XPi1vamkfG7UqXMdP8GN-81" style="edgeStyle=orthogonalEdgeStyle;rounded=0;orthogonalLoop=1;jettySize=auto;html=1;entryX=0.5;entryY=0;entryDx=0;entryDy=0;endArrow=none;endFill=0;" parent="GuQFnasYdeO0e7b2p5Jr-1" source="GuQFnasYdeO0e7b2p5Jr-79" target="GuQFnasYdeO0e7b2p5Jr-15" edge="1">
                    <mxGeometry relative="1" as="geometry">
                        <Array as="points">
                            <mxPoint x="870" y="-100"/>
                            <mxPoint x="720" y="-100"/>
                        </Array>
                    </mxGeometry>
                </mxCell>
                <mxCell id="GuQFnasYdeO0e7b2p5Jr-79" value="&lt;u&gt;Course_id&lt;/u&gt;" style="ellipse;whiteSpace=wrap;html=1;fillColor=#b45f06;strokeColor=#6D1F00;fontColor=#ffffff;" parent="GuQFnasYdeO0e7b2p5Jr-1" vertex="1">
                    <mxGeometry x="808.6" y="7.25" width="140" height="40" as="geometry"/>
                </mxCell>
                <mxCell id="XPi1vamkfG7UqXMdP8GN-13" style="edgeStyle=orthogonalEdgeStyle;rounded=0;orthogonalLoop=1;jettySize=auto;html=1;entryX=0.5;entryY=0;entryDx=0;entryDy=0;endArrow=none;endFill=0;" parent="GuQFnasYdeO0e7b2p5Jr-1" source="GuQFnasYdeO0e7b2p5Jr-81" target="GuQFnasYdeO0e7b2p5Jr-30" edge="1">
                    <mxGeometry relative="1" as="geometry">
                        <Array as="points">
                            <mxPoint x="440" y="435"/>
                            <mxPoint x="440" y="470"/>
                            <mxPoint x="380" y="470"/>
                        </Array>
                    </mxGeometry>
                </mxCell>
                <mxCell id="GuQFnasYdeO0e7b2p5Jr-81" value="&lt;u&gt;Candidate_id&lt;/u&gt;" style="ellipse;whiteSpace=wrap;html=1;fillColor=#ff9900;strokeColor=#BD7000;fontColor=#000000;" parent="GuQFnasYdeO0e7b2p5Jr-1" vertex="1">
                    <mxGeometry x="500" y="415" width="140" height="40" as="geometry"/>
                </mxCell>
                <mxCell id="XPi1vamkfG7UqXMdP8GN-23" style="edgeStyle=orthogonalEdgeStyle;rounded=0;orthogonalLoop=1;jettySize=auto;html=1;entryX=0.25;entryY=0;entryDx=0;entryDy=0;endArrow=none;endFill=0;" parent="GuQFnasYdeO0e7b2p5Jr-1" source="GuQFnasYdeO0e7b2p5Jr-82" target="GuQFnasYdeO0e7b2p5Jr-13" edge="1">
                    <mxGeometry relative="1" as="geometry"/>
                </mxCell>
                <mxCell id="GuQFnasYdeO0e7b2p5Jr-82" value="&lt;u&gt;Elections_id&lt;/u&gt;" style="ellipse;whiteSpace=wrap;html=1;fillColor=#6aa84f;strokeColor=#2D7600;fontColor=#ffffff;" parent="GuQFnasYdeO0e7b2p5Jr-1" vertex="1">
                    <mxGeometry x="-357" y="864" width="140" height="40" as="geometry"/>
                </mxCell>
                <mxCell id="GuQFnasYdeO0e7b2p5Jr-84" value="&lt;u&gt;Student_id&lt;/u&gt;" style="ellipse;whiteSpace=wrap;html=1;fillColor=#ffff00;strokeColor=#b46504;" parent="GuQFnasYdeO0e7b2p5Jr-1" vertex="1">
                    <mxGeometry x="580" y="1" width="140" height="40" as="geometry"/>
                </mxCell>
                <mxCell id="GuQFnasYdeO0e7b2p5Jr-85" style="edgeStyle=orthogonalEdgeStyle;rounded=0;orthogonalLoop=1;jettySize=auto;html=1;entryX=0;entryY=0.25;entryDx=0;entryDy=0;endArrow=none;endFill=0;" parent="GuQFnasYdeO0e7b2p5Jr-1" source="GuQFnasYdeO0e7b2p5Jr-86" target="GuQFnasYdeO0e7b2p5Jr-18" edge="1">
                    <mxGeometry relative="1" as="geometry">
                        <Array as="points">
                            <mxPoint x="70" y="164"/>
                            <mxPoint x="70" y="225"/>
                        </Array>
                    </mxGeometry>
                </mxCell>
                <mxCell id="GuQFnasYdeO0e7b2p5Jr-86" value="" style="ellipse;whiteSpace=wrap;html=1;" parent="GuQFnasYdeO0e7b2p5Jr-1" vertex="1">
                    <mxGeometry x="-110" y="137.5" width="160" height="52" as="geometry"/>
                </mxCell>
                <mxCell id="GuQFnasYdeO0e7b2p5Jr-87" style="edgeStyle=orthogonalEdgeStyle;rounded=0;orthogonalLoop=1;jettySize=auto;html=1;entryX=0.25;entryY=0;entryDx=0;entryDy=0;endArrow=none;endFill=0;" parent="GuQFnasYdeO0e7b2p5Jr-1" source="GuQFnasYdeO0e7b2p5Jr-88" target="GuQFnasYdeO0e7b2p5Jr-18" edge="1">
                    <mxGeometry relative="1" as="geometry"/>
                </mxCell>
                <mxCell id="GuQFnasYdeO0e7b2p5Jr-88" value="" style="ellipse;whiteSpace=wrap;html=1;" parent="GuQFnasYdeO0e7b2p5Jr-1" vertex="1">
                    <mxGeometry x="-110" y="78" width="160" height="52" as="geometry"/>
                </mxCell>
                <mxCell id="XPi1vamkfG7UqXMdP8GN-68" style="edgeStyle=orthogonalEdgeStyle;rounded=0;orthogonalLoop=1;jettySize=auto;html=1;entryX=0;entryY=0;entryDx=0;entryDy=0;endArrow=none;endFill=0;" parent="GuQFnasYdeO0e7b2p5Jr-1" source="GuQFnasYdeO0e7b2p5Jr-91" target="GuQFnasYdeO0e7b2p5Jr-27" edge="1">
                    <mxGeometry relative="1" as="geometry">
                        <Array as="points">
                            <mxPoint x="210" y="-6"/>
                            <mxPoint x="210" y="211"/>
                        </Array>
                    </mxGeometry>
                </mxCell>
                <mxCell id="GuQFnasYdeO0e7b2p5Jr-91" value="" style="ellipse;whiteSpace=wrap;html=1;" parent="GuQFnasYdeO0e7b2p5Jr-1" vertex="1">
                    <mxGeometry x="240" y="-32" width="160" height="52" as="geometry"/>
                </mxCell>
                <mxCell id="XPi1vamkfG7UqXMdP8GN-58" style="edgeStyle=orthogonalEdgeStyle;rounded=0;orthogonalLoop=1;jettySize=auto;html=1;entryX=0;entryY=0.75;entryDx=0;entryDy=0;endArrow=none;endFill=0;" parent="GuQFnasYdeO0e7b2p5Jr-1" source="GuQFnasYdeO0e7b2p5Jr-96" target="GuQFnasYdeO0e7b2p5Jr-31" edge="1">
                    <mxGeometry relative="1" as="geometry">
                        <Array as="points">
                            <mxPoint x="20" y="726"/>
                            <mxPoint x="20" y="595"/>
                        </Array>
                    </mxGeometry>
                </mxCell>
                <mxCell id="GuQFnasYdeO0e7b2p5Jr-96" value="" style="ellipse;whiteSpace=wrap;html=1;" parent="GuQFnasYdeO0e7b2p5Jr-1" vertex="1">
                    <mxGeometry x="-360" y="700" width="160" height="52" as="geometry"/>
                </mxCell>
                <mxCell id="XPi1vamkfG7UqXMdP8GN-57" style="edgeStyle=orthogonalEdgeStyle;rounded=0;orthogonalLoop=1;jettySize=auto;html=1;entryX=0;entryY=0.5;entryDx=0;entryDy=0;endArrow=none;endFill=0;" parent="GuQFnasYdeO0e7b2p5Jr-1" source="GuQFnasYdeO0e7b2p5Jr-97" target="GuQFnasYdeO0e7b2p5Jr-31" edge="1">
                    <mxGeometry relative="1" as="geometry">
                        <Array as="points">
                            <mxPoint x="-10" y="656"/>
                            <mxPoint x="-10" y="580"/>
                        </Array>
                    </mxGeometry>
                </mxCell>
                <mxCell id="GuQFnasYdeO0e7b2p5Jr-97" value="" style="ellipse;whiteSpace=wrap;html=1;" parent="GuQFnasYdeO0e7b2p5Jr-1" vertex="1">
                    <mxGeometry x="-360" y="630" width="160" height="52" as="geometry"/>
                </mxCell>
                <mxCell id="GuQFnasYdeO0e7b2p5Jr-98" value="&lt;u&gt;User_status_id&lt;/u&gt;" style="ellipse;whiteSpace=wrap;html=1;fillColor=#ff00ff;strokeColor=#b85450;fontColor=#FFFFFF;" parent="GuQFnasYdeO0e7b2p5Jr-1" vertex="1">
                    <mxGeometry x="-100" y="144" width="140" height="40" as="geometry"/>
                </mxCell>
                <mxCell id="GuQFnasYdeO0e7b2p5Jr-99" value="&lt;u&gt;Role_id&lt;/u&gt;" style="ellipse;whiteSpace=wrap;html=1;fillColor=#6a00ff;strokeColor=#3700CC;fontColor=#ffffff;" parent="GuQFnasYdeO0e7b2p5Jr-1" vertex="1">
                    <mxGeometry x="-100" y="84" width="140" height="40" as="geometry"/>
                </mxCell>
                <mxCell id="GuQFnasYdeO0e7b2p5Jr-103" value="&lt;u&gt;Elections_id&lt;/u&gt;" style="ellipse;whiteSpace=wrap;html=1;fillColor=#60a917;strokeColor=#2D7600;fontColor=#ffffff;" parent="GuQFnasYdeO0e7b2p5Jr-1" vertex="1">
                    <mxGeometry x="-350" y="636" width="140" height="40" as="geometry"/>
                </mxCell>
                <mxCell id="XPi1vamkfG7UqXMdP8GN-59" style="edgeStyle=orthogonalEdgeStyle;rounded=0;orthogonalLoop=1;jettySize=auto;html=1;entryX=0.25;entryY=1;entryDx=0;entryDy=0;endArrow=none;endFill=0;" parent="GuQFnasYdeO0e7b2p5Jr-1" source="GuQFnasYdeO0e7b2p5Jr-106" target="GuQFnasYdeO0e7b2p5Jr-31" edge="1">
                    <mxGeometry relative="1" as="geometry"/>
                </mxCell>
                <mxCell id="GuQFnasYdeO0e7b2p5Jr-106" value="" style="ellipse;whiteSpace=wrap;html=1;" parent="GuQFnasYdeO0e7b2p5Jr-1" vertex="1">
                    <mxGeometry x="-358" y="761" width="160" height="52" as="geometry"/>
                </mxCell>
                <mxCell id="GuQFnasYdeO0e7b2p5Jr-108" value="&lt;u&gt;Candidate_id&lt;/u&gt;" style="ellipse;whiteSpace=wrap;html=1;fillColor=#f0a30a;strokeColor=#BD7000;fontColor=#000000;" parent="GuQFnasYdeO0e7b2p5Jr-1" vertex="1">
                    <mxGeometry x="-350" y="706" width="140" height="40" as="geometry"/>
                </mxCell>
                <mxCell id="GuQFnasYdeO0e7b2p5Jr-109" style="edgeStyle=orthogonalEdgeStyle;rounded=0;orthogonalLoop=1;jettySize=auto;html=1;entryX=0;entryY=0.25;entryDx=0;entryDy=0;endArrow=none;endFill=0;" parent="GuQFnasYdeO0e7b2p5Jr-1" source="GuQFnasYdeO0e7b2p5Jr-110" target="GuQFnasYdeO0e7b2p5Jr-3" edge="1">
                    <mxGeometry relative="1" as="geometry"/>
                </mxCell>
                <mxCell id="GuQFnasYdeO0e7b2p5Jr-110" value="&lt;font style=&quot;font-size: 10px;&quot;&gt;User_status_name&lt;/font&gt;" style="ellipse;whiteSpace=wrap;html=1;" parent="GuQFnasYdeO0e7b2p5Jr-1" vertex="1">
                    <mxGeometry x="-450" y="195" width="126" height="40" as="geometry"/>
                </mxCell>
                <mxCell id="GuQFnasYdeO0e7b2p5Jr-111" style="edgeStyle=orthogonalEdgeStyle;rounded=0;orthogonalLoop=1;jettySize=auto;html=1;entryX=0;entryY=0.75;entryDx=0;entryDy=0;endArrow=none;endFill=0;" parent="GuQFnasYdeO0e7b2p5Jr-1" source="GuQFnasYdeO0e7b2p5Jr-112" target="GuQFnasYdeO0e7b2p5Jr-3" edge="1">
                    <mxGeometry relative="1" as="geometry"/>
                </mxCell>
                <mxCell id="GuQFnasYdeO0e7b2p5Jr-112" value="&lt;font style=&quot;font-size: 10px;&quot;&gt;User_status_description&lt;/font&gt;" style="ellipse;whiteSpace=wrap;html=1;" parent="GuQFnasYdeO0e7b2p5Jr-1" vertex="1">
                    <mxGeometry x="-450" y="245" width="126" height="40" as="geometry"/>
                </mxCell>
                <mxCell id="GuQFnasYdeO0e7b2p5Jr-123" style="edgeStyle=orthogonalEdgeStyle;rounded=0;orthogonalLoop=1;jettySize=auto;html=1;entryX=1;entryY=0.25;entryDx=0;entryDy=0;endArrow=none;endFill=0;" parent="GuQFnasYdeO0e7b2p5Jr-1" source="GuQFnasYdeO0e7b2p5Jr-124" target="GuQFnasYdeO0e7b2p5Jr-2" edge="1">
                    <mxGeometry relative="1" as="geometry">
                        <Array as="points">
                            <mxPoint x="800" y="299"/>
                            <mxPoint x="800" y="379"/>
                        </Array>
                    </mxGeometry>
                </mxCell>
                <mxCell id="GuQFnasYdeO0e7b2p5Jr-124" value="&lt;font style=&quot;font-size: 10px;&quot;&gt;Document_type_name&lt;/font&gt;" style="ellipse;whiteSpace=wrap;html=1;" parent="GuQFnasYdeO0e7b2p5Jr-1" vertex="1">
                    <mxGeometry x="810" y="274" width="140" height="50" as="geometry"/>
                </mxCell>
                <mxCell id="GuQFnasYdeO0e7b2p5Jr-125" style="edgeStyle=orthogonalEdgeStyle;rounded=0;orthogonalLoop=1;jettySize=auto;html=1;entryX=1;entryY=0.5;entryDx=0;entryDy=0;endArrow=none;endFill=0;" parent="GuQFnasYdeO0e7b2p5Jr-1" source="GuQFnasYdeO0e7b2p5Jr-126" target="GuQFnasYdeO0e7b2p5Jr-2" edge="1">
                    <mxGeometry relative="1" as="geometry">
                        <Array as="points">
                            <mxPoint x="880" y="404"/>
                            <mxPoint x="790" y="404"/>
                        </Array>
                    </mxGeometry>
                </mxCell>
                <mxCell id="GuQFnasYdeO0e7b2p5Jr-126" value="&lt;font style=&quot;font-size: 10px;&quot;&gt;Document_type_description&lt;/font&gt;" style="ellipse;whiteSpace=wrap;html=1;" parent="GuQFnasYdeO0e7b2p5Jr-1" vertex="1">
                    <mxGeometry x="810" y="334" width="140" height="50" as="geometry"/>
                </mxCell>
                <mxCell id="GuQFnasYdeO0e7b2p5Jr-127" style="edgeStyle=orthogonalEdgeStyle;rounded=0;orthogonalLoop=1;jettySize=auto;html=1;entryX=0;entryY=0.25;entryDx=0;entryDy=0;endArrow=none;endFill=0;" parent="GuQFnasYdeO0e7b2p5Jr-1" source="GuQFnasYdeO0e7b2p5Jr-128" target="GuQFnasYdeO0e7b2p5Jr-6" edge="1">
                    <mxGeometry relative="1" as="geometry"/>
                </mxCell>
                <mxCell id="GuQFnasYdeO0e7b2p5Jr-128" value="&lt;font style=&quot;font-size: 10px;&quot;&gt;Role_name&lt;/font&gt;" style="ellipse;whiteSpace=wrap;html=1;" parent="GuQFnasYdeO0e7b2p5Jr-1" vertex="1">
                    <mxGeometry x="-457" y="310" width="126" height="40" as="geometry"/>
                </mxCell>
                <mxCell id="GuQFnasYdeO0e7b2p5Jr-129" style="edgeStyle=orthogonalEdgeStyle;rounded=0;orthogonalLoop=1;jettySize=auto;html=1;entryX=0;entryY=0.75;entryDx=0;entryDy=0;endArrow=none;endFill=0;" parent="GuQFnasYdeO0e7b2p5Jr-1" source="GuQFnasYdeO0e7b2p5Jr-130" target="GuQFnasYdeO0e7b2p5Jr-6" edge="1">
                    <mxGeometry relative="1" as="geometry">
                        <Array as="points">
                            <mxPoint x="-280" y="370"/>
                            <mxPoint x="-280" y="360"/>
                        </Array>
                    </mxGeometry>
                </mxCell>
                <mxCell id="GuQFnasYdeO0e7b2p5Jr-130" value="&lt;font style=&quot;font-size: 10px;&quot;&gt;Role_description&lt;/font&gt;" style="ellipse;whiteSpace=wrap;html=1;" parent="GuQFnasYdeO0e7b2p5Jr-1" vertex="1">
                    <mxGeometry x="-457" y="362" width="126" height="40" as="geometry"/>
                </mxCell>
                <mxCell id="XPi1vamkfG7UqXMdP8GN-24" style="edgeStyle=orthogonalEdgeStyle;rounded=0;orthogonalLoop=1;jettySize=auto;html=1;entryX=0;entryY=0.5;entryDx=0;entryDy=0;endArrow=none;endFill=0;" parent="GuQFnasYdeO0e7b2p5Jr-1" source="GuQFnasYdeO0e7b2p5Jr-132" target="GuQFnasYdeO0e7b2p5Jr-13" edge="1">
                    <mxGeometry relative="1" as="geometry">
                        <Array as="points">
                            <mxPoint x="-163" y="939"/>
                            <mxPoint x="-163" y="863"/>
                        </Array>
                    </mxGeometry>
                </mxCell>
                <mxCell id="GuQFnasYdeO0e7b2p5Jr-132" value="&lt;font style=&quot;font-size: 10px;&quot;&gt;Elections_date&lt;/font&gt;" style="ellipse;whiteSpace=wrap;html=1;" parent="GuQFnasYdeO0e7b2p5Jr-1" vertex="1">
                    <mxGeometry x="-357" y="913" width="140" height="51.5" as="geometry"/>
                </mxCell>
                <mxCell id="XPi1vamkfG7UqXMdP8GN-25" style="edgeStyle=orthogonalEdgeStyle;rounded=0;orthogonalLoop=1;jettySize=auto;html=1;entryX=0;entryY=1;entryDx=0;entryDy=0;endArrow=none;endFill=0;" parent="GuQFnasYdeO0e7b2p5Jr-1" source="GuQFnasYdeO0e7b2p5Jr-134" target="GuQFnasYdeO0e7b2p5Jr-13" edge="1">
                    <mxGeometry relative="1" as="geometry"/>
                </mxCell>
                <mxCell id="GuQFnasYdeO0e7b2p5Jr-134" value="&lt;font style=&quot;font-size: 10px;&quot;&gt;Elections_description&lt;/font&gt;" style="ellipse;whiteSpace=wrap;html=1;" parent="GuQFnasYdeO0e7b2p5Jr-1" vertex="1">
                    <mxGeometry x="-357" y="973" width="140" height="50" as="geometry"/>
                </mxCell>
                <mxCell id="XPi1vamkfG7UqXMdP8GN-14" style="edgeStyle=orthogonalEdgeStyle;rounded=0;orthogonalLoop=1;jettySize=auto;html=1;entryX=1;entryY=0;entryDx=0;entryDy=0;endArrow=none;endFill=0;" parent="GuQFnasYdeO0e7b2p5Jr-1" source="GuQFnasYdeO0e7b2p5Jr-138" target="GuQFnasYdeO0e7b2p5Jr-30" edge="1">
                    <mxGeometry relative="1" as="geometry"/>
                </mxCell>
                <mxCell id="GuQFnasYdeO0e7b2p5Jr-138" value="&lt;font style=&quot;font-size: 10px;&quot;&gt;Candidate_name&lt;/font&gt;" style="ellipse;whiteSpace=wrap;html=1;" parent="GuQFnasYdeO0e7b2p5Jr-1" vertex="1">
                    <mxGeometry x="500" y="469.5" width="140" height="50" as="geometry"/>
                </mxCell>
                <mxCell id="XPi1vamkfG7UqXMdP8GN-15" style="edgeStyle=orthogonalEdgeStyle;rounded=0;orthogonalLoop=1;jettySize=auto;html=1;entryX=1;entryY=0.5;entryDx=0;entryDy=0;endArrow=none;endFill=0;" parent="GuQFnasYdeO0e7b2p5Jr-1" source="GuQFnasYdeO0e7b2p5Jr-140" target="GuQFnasYdeO0e7b2p5Jr-30" edge="1">
                    <mxGeometry relative="1" as="geometry"/>
                </mxCell>
                <mxCell id="GuQFnasYdeO0e7b2p5Jr-140" value="&lt;font style=&quot;font-size: 10px;&quot;&gt;Candidate_descriptions&lt;/font&gt;" style="ellipse;whiteSpace=wrap;html=1;" parent="GuQFnasYdeO0e7b2p5Jr-1" vertex="1">
                    <mxGeometry x="500" y="529.5" width="140" height="50" as="geometry"/>
                </mxCell>
                <mxCell id="XPi1vamkfG7UqXMdP8GN-19" style="edgeStyle=orthogonalEdgeStyle;rounded=0;orthogonalLoop=1;jettySize=auto;html=1;entryX=0.5;entryY=1;entryDx=0;entryDy=0;endArrow=none;endFill=0;" parent="GuQFnasYdeO0e7b2p5Jr-1" source="GuQFnasYdeO0e7b2p5Jr-141" target="GuQFnasYdeO0e7b2p5Jr-30" edge="1">
                    <mxGeometry relative="1" as="geometry"/>
                </mxCell>
                <mxCell id="GuQFnasYdeO0e7b2p5Jr-141" value="" style="ellipse;whiteSpace=wrap;html=1;" parent="GuQFnasYdeO0e7b2p5Jr-1" vertex="1">
                    <mxGeometry x="480" y="795" width="160" height="52" as="geometry"/>
                </mxCell>
                <mxCell id="GuQFnasYdeO0e7b2p5Jr-143" value="&lt;u&gt;Student_id&lt;/u&gt;" style="ellipse;whiteSpace=wrap;html=1;fillColor=#ffff00;strokeColor=#b46504;" parent="GuQFnasYdeO0e7b2p5Jr-1" vertex="1">
                    <mxGeometry x="490" y="801" width="140" height="40" as="geometry"/>
                </mxCell>
                <mxCell id="XPi1vamkfG7UqXMdP8GN-16" style="edgeStyle=orthogonalEdgeStyle;rounded=0;orthogonalLoop=1;jettySize=auto;html=1;entryX=1;entryY=0.75;entryDx=0;entryDy=0;endArrow=none;endFill=0;" parent="GuQFnasYdeO0e7b2p5Jr-1" source="GuQFnasYdeO0e7b2p5Jr-144" target="GuQFnasYdeO0e7b2p5Jr-30" edge="1">
                    <mxGeometry relative="1" as="geometry"/>
                </mxCell>
                <mxCell id="GuQFnasYdeO0e7b2p5Jr-144" value="&lt;font style=&quot;font-size: 10px;&quot;&gt;Candidate_photo&lt;/font&gt;" style="ellipse;whiteSpace=wrap;html=1;" parent="GuQFnasYdeO0e7b2p5Jr-1" vertex="1">
                    <mxGeometry x="500" y="595" width="140" height="50" as="geometry"/>
                </mxCell>
                <mxCell id="XPi1vamkfG7UqXMdP8GN-17" style="edgeStyle=orthogonalEdgeStyle;rounded=0;orthogonalLoop=1;jettySize=auto;html=1;entryX=1;entryY=1;entryDx=0;entryDy=0;endArrow=none;endFill=0;" parent="GuQFnasYdeO0e7b2p5Jr-1" source="GuQFnasYdeO0e7b2p5Jr-146" target="GuQFnasYdeO0e7b2p5Jr-30" edge="1">
                    <mxGeometry relative="1" as="geometry"/>
                </mxCell>
                <mxCell id="GuQFnasYdeO0e7b2p5Jr-146" value="&lt;font style=&quot;font-size: 10px;&quot;&gt;Candidate_slogan&lt;/font&gt;" style="ellipse;whiteSpace=wrap;html=1;" parent="GuQFnasYdeO0e7b2p5Jr-1" vertex="1">
                    <mxGeometry x="500" y="661" width="140" height="50" as="geometry"/>
                </mxCell>
                <mxCell id="XPi1vamkfG7UqXMdP8GN-18" style="edgeStyle=orthogonalEdgeStyle;rounded=0;orthogonalLoop=1;jettySize=auto;html=1;entryX=0.75;entryY=1;entryDx=0;entryDy=0;endArrow=none;endFill=0;" parent="GuQFnasYdeO0e7b2p5Jr-1" source="GuQFnasYdeO0e7b2p5Jr-148" target="GuQFnasYdeO0e7b2p5Jr-30" edge="1">
                    <mxGeometry relative="1" as="geometry"/>
                </mxCell>
                <mxCell id="GuQFnasYdeO0e7b2p5Jr-148" value="&lt;font style=&quot;font-size: 10px;&quot;&gt;Candidate_proposals&lt;/font&gt;" style="ellipse;whiteSpace=wrap;html=1;" parent="GuQFnasYdeO0e7b2p5Jr-1" vertex="1">
                    <mxGeometry x="500" y="730" width="140" height="50" as="geometry"/>
                </mxCell>
                <mxCell id="GuQFnasYdeO0e7b2p5Jr-149" value="Student_name" style="ellipse;whiteSpace=wrap;html=1;" parent="GuQFnasYdeO0e7b2p5Jr-1" vertex="1">
                    <mxGeometry x="580" y="61.5" width="140" height="51.5" as="geometry"/>
                </mxCell>
                <mxCell id="GuQFnasYdeO0e7b2p5Jr-150" value="&lt;font style=&quot;font-size: 10px;&quot;&gt;Student_document&lt;/font&gt;" style="ellipse;whiteSpace=wrap;html=1;" parent="GuQFnasYdeO0e7b2p5Jr-1" vertex="1">
                    <mxGeometry x="580" y="129" width="140" height="50" as="geometry"/>
                </mxCell>
                <mxCell id="GuQFnasYdeO0e7b2p5Jr-151" value="&lt;font style=&quot;font-size: 10px;&quot;&gt;Student_email&lt;/font&gt;" style="ellipse;whiteSpace=wrap;html=1;" parent="GuQFnasYdeO0e7b2p5Jr-1" vertex="1">
                    <mxGeometry x="580" y="201" width="140" height="50" as="geometry"/>
                </mxCell>
                <mxCell id="XPi1vamkfG7UqXMdP8GN-65" style="edgeStyle=orthogonalEdgeStyle;rounded=0;orthogonalLoop=1;jettySize=auto;html=1;entryX=0.25;entryY=0;entryDx=0;entryDy=0;endArrow=none;endFill=0;" parent="GuQFnasYdeO0e7b2p5Jr-1" source="GuQFnasYdeO0e7b2p5Jr-156" target="GuQFnasYdeO0e7b2p5Jr-27" edge="1">
                    <mxGeometry relative="1" as="geometry">
                        <Array as="points">
                            <mxPoint x="220" y="73"/>
                            <mxPoint x="220" y="180"/>
                            <mxPoint x="290" y="180"/>
                        </Array>
                    </mxGeometry>
                </mxCell>
                <mxCell id="GuQFnasYdeO0e7b2p5Jr-156" value="" style="ellipse;whiteSpace=wrap;html=1;" parent="GuQFnasYdeO0e7b2p5Jr-1" vertex="1">
                    <mxGeometry x="240" y="47.25" width="160" height="52" as="geometry"/>
                </mxCell>
                <mxCell id="GuQFnasYdeO0e7b2p5Jr-157" value="&lt;u&gt;Document_type_id&lt;/u&gt;" style="ellipse;whiteSpace=wrap;html=1;fillColor=#00ff00;strokeColor=#36393d;" parent="GuQFnasYdeO0e7b2p5Jr-1" vertex="1">
                    <mxGeometry x="250" y="53.25" width="140" height="40" as="geometry"/>
                </mxCell>
                <mxCell id="GuQFnasYdeO0e7b2p5Jr-158" value="&lt;font style=&quot;font-size: 10px;&quot;&gt;Student_cellphone&lt;/font&gt;" style="ellipse;whiteSpace=wrap;html=1;" parent="GuQFnasYdeO0e7b2p5Jr-1" vertex="1">
                    <mxGeometry x="580" y="265" width="140" height="50" as="geometry"/>
                </mxCell>
                <mxCell id="GuQFnasYdeO0e7b2p5Jr-160" value="&lt;font style=&quot;font-size: 10px;&quot;&gt;Student_address&lt;/font&gt;" style="ellipse;whiteSpace=wrap;html=1;" parent="GuQFnasYdeO0e7b2p5Jr-1" vertex="1">
                    <mxGeometry x="580" y="320" width="140" height="50" as="geometry"/>
                </mxCell>
                <mxCell id="GuQFnasYdeO0e7b2p5Jr-162" value="&lt;font style=&quot;font-size: 10px;&quot;&gt;Course_description&lt;/font&gt;" style="ellipse;whiteSpace=wrap;html=1;" parent="GuQFnasYdeO0e7b2p5Jr-1" vertex="1">
                    <mxGeometry x="808.6" y="117.25" width="140" height="50" as="geometry"/>
                </mxCell>
                <mxCell id="GuQFnasYdeO0e7b2p5Jr-164" value="&lt;font style=&quot;font-size: 10px;&quot;&gt;Course_name&lt;/font&gt;" style="ellipse;whiteSpace=wrap;html=1;" parent="GuQFnasYdeO0e7b2p5Jr-1" vertex="1">
                    <mxGeometry x="808.6" y="57.25" width="141.4" height="50.5" as="geometry"/>
                </mxCell>
                <mxCell id="GuQFnasYdeO0e7b2p5Jr-165" style="edgeStyle=orthogonalEdgeStyle;rounded=0;orthogonalLoop=1;jettySize=auto;html=1;entryX=0.75;entryY=0;entryDx=0;entryDy=0;endArrow=none;endFill=0;" parent="GuQFnasYdeO0e7b2p5Jr-1" source="GuQFnasYdeO0e7b2p5Jr-166" target="GuQFnasYdeO0e7b2p5Jr-18" edge="1">
                    <mxGeometry relative="1" as="geometry"/>
                </mxCell>
                <mxCell id="GuQFnasYdeO0e7b2p5Jr-166" value="&lt;font style=&quot;font-size: 10px;&quot;&gt;User_user&lt;/font&gt;" style="ellipse;whiteSpace=wrap;html=1;" parent="GuQFnasYdeO0e7b2p5Jr-1" vertex="1">
                    <mxGeometry x="-100" y="-38" width="140" height="50" as="geometry"/>
                </mxCell>
                <mxCell id="GuQFnasYdeO0e7b2p5Jr-167" style="edgeStyle=orthogonalEdgeStyle;rounded=0;orthogonalLoop=1;jettySize=auto;html=1;entryX=1;entryY=0;entryDx=0;entryDy=0;endArrow=none;endFill=0;" parent="GuQFnasYdeO0e7b2p5Jr-1" source="GuQFnasYdeO0e7b2p5Jr-168" target="GuQFnasYdeO0e7b2p5Jr-18" edge="1">
                    <mxGeometry relative="1" as="geometry"/>
                </mxCell>
                <mxCell id="GuQFnasYdeO0e7b2p5Jr-168" value="&lt;font style=&quot;font-size: 10px;&quot;&gt;User_password&lt;/font&gt;" style="ellipse;whiteSpace=wrap;html=1;" parent="GuQFnasYdeO0e7b2p5Jr-1" vertex="1">
                    <mxGeometry x="-100" y="-100" width="140" height="50" as="geometry"/>
                </mxCell>
                <mxCell id="GuQFnasYdeO0e7b2p5Jr-178" value="&lt;u&gt;Student_id&lt;/u&gt;" style="ellipse;whiteSpace=wrap;html=1;fillColor=#FFFF00;strokeColor=#b46504;" parent="GuQFnasYdeO0e7b2p5Jr-1" vertex="1">
                    <mxGeometry x="-350" y="767" width="140" height="40" as="geometry"/>
                </mxCell>
                <mxCell id="XPi1vamkfG7UqXMdP8GN-0" value="&lt;u&gt;Role_id&lt;/u&gt;" style="ellipse;whiteSpace=wrap;html=1;fillColor=#6a00ff;strokeColor=#3700CC;fontColor=#ffffff;" parent="GuQFnasYdeO0e7b2p5Jr-1" vertex="1">
                    <mxGeometry x="250" y="-26" width="140" height="40" as="geometry"/>
                </mxCell>
                <mxCell id="XPi1vamkfG7UqXMdP8GN-53" style="edgeStyle=orthogonalEdgeStyle;rounded=0;orthogonalLoop=1;jettySize=auto;html=1;entryX=0;entryY=0;entryDx=0;entryDy=0;endArrow=none;endFill=0;" parent="GuQFnasYdeO0e7b2p5Jr-1" source="XPi1vamkfG7UqXMdP8GN-26" target="GuQFnasYdeO0e7b2p5Jr-31" edge="1">
                    <mxGeometry relative="1" as="geometry">
                        <Array as="points">
                            <mxPoint x="30" y="535"/>
                        </Array>
                    </mxGeometry>
                </mxCell>
                <mxCell id="XPi1vamkfG7UqXMdP8GN-26" value="Vote_code" style="ellipse;whiteSpace=wrap;html=1;" parent="GuQFnasYdeO0e7b2p5Jr-1" vertex="1">
                    <mxGeometry x="-338" y="510" width="140" height="50" as="geometry"/>
                </mxCell>
                <mxCell id="XPi1vamkfG7UqXMdP8GN-35" value="HAS" style="rhombus;whiteSpace=wrap;html=1;" parent="GuQFnasYdeO0e7b2p5Jr-1" vertex="1">
                    <mxGeometry x="340" y="363" width="80" height="80" as="geometry"/>
                </mxCell>
                <mxCell id="XPi1vamkfG7UqXMdP8GN-54" style="edgeStyle=orthogonalEdgeStyle;rounded=0;orthogonalLoop=1;jettySize=auto;html=1;entryX=0;entryY=0.25;entryDx=0;entryDy=0;endArrow=none;endFill=0;" parent="GuQFnasYdeO0e7b2p5Jr-1" source="XPi1vamkfG7UqXMdP8GN-27" target="GuQFnasYdeO0e7b2p5Jr-31" edge="1">
                    <mxGeometry relative="1" as="geometry"/>
                </mxCell>
                <mxCell id="XPi1vamkfG7UqXMdP8GN-27" value="Vote_date" style="ellipse;whiteSpace=wrap;html=1;" parent="GuQFnasYdeO0e7b2p5Jr-1" vertex="1">
                    <mxGeometry x="-338" y="566" width="140" height="50" as="geometry"/>
                </mxCell>
                <mxCell id="XPi1vamkfG7UqXMdP8GN-47" style="edgeStyle=orthogonalEdgeStyle;rounded=0;orthogonalLoop=1;jettySize=auto;html=1;entryX=0.25;entryY=1;entryDx=0;entryDy=0;endArrow=ERone;endFill=0;" parent="GuQFnasYdeO0e7b2p5Jr-1" source="XPi1vamkfG7UqXMdP8GN-46" target="GuQFnasYdeO0e7b2p5Jr-30" edge="1">
                    <mxGeometry relative="1" as="geometry"/>
                </mxCell>
                <mxCell id="XPi1vamkfG7UqXMdP8GN-50" style="edgeStyle=orthogonalEdgeStyle;rounded=0;orthogonalLoop=1;jettySize=auto;html=1;entryX=0.5;entryY=1;entryDx=0;entryDy=0;endArrow=ERone;endFill=0;" parent="GuQFnasYdeO0e7b2p5Jr-1" source="XPi1vamkfG7UqXMdP8GN-46" target="GuQFnasYdeO0e7b2p5Jr-31" edge="1">
                    <mxGeometry relative="1" as="geometry"/>
                </mxCell>
                <mxCell id="XPi1vamkfG7UqXMdP8GN-46" value="CONTAINS" style="rhombus;whiteSpace=wrap;html=1;" parent="GuQFnasYdeO0e7b2p5Jr-1" vertex="1">
                    <mxGeometry x="70" y="795" width="80" height="80" as="geometry"/>
                </mxCell>
                <mxCell id="XPi1vamkfG7UqXMdP8GN-67" style="edgeStyle=orthogonalEdgeStyle;rounded=0;orthogonalLoop=1;jettySize=auto;html=1;entryX=0.5;entryY=0;entryDx=0;entryDy=0;endArrow=none;endFill=0;" parent="GuQFnasYdeO0e7b2p5Jr-1" source="XPi1vamkfG7UqXMdP8GN-62" target="GuQFnasYdeO0e7b2p5Jr-27" edge="1">
                    <mxGeometry relative="1" as="geometry"/>
                </mxCell>
                <mxCell id="XPi1vamkfG7UqXMdP8GN-62" value="" style="ellipse;whiteSpace=wrap;html=1;" parent="GuQFnasYdeO0e7b2p5Jr-1" vertex="1">
                    <mxGeometry x="240" y="113" width="160" height="52" as="geometry"/>
                </mxCell>
                <mxCell id="XPi1vamkfG7UqXMdP8GN-63" value="&lt;u&gt;Course_id&lt;/u&gt;" style="ellipse;whiteSpace=wrap;html=1;fillColor=#b45f06;strokeColor=#6D1F00;fontColor=#ffffff;" parent="GuQFnasYdeO0e7b2p5Jr-1" vertex="1">
                    <mxGeometry x="250" y="119" width="140" height="40" as="geometry"/>
                </mxCell>
                <mxCell id="XPi1vamkfG7UqXMdP8GN-72" style="edgeStyle=orthogonalEdgeStyle;rounded=0;orthogonalLoop=1;jettySize=auto;html=1;entryX=0;entryY=0.5;entryDx=0;entryDy=0;endArrow=ERone;endFill=0;" parent="GuQFnasYdeO0e7b2p5Jr-1" source="XPi1vamkfG7UqXMdP8GN-69" target="GuQFnasYdeO0e7b2p5Jr-15" edge="1">
                    <mxGeometry relative="1" as="geometry">
                        <Array as="points">
                            <mxPoint x="470" y="-50"/>
                        </Array>
                    </mxGeometry>
                </mxCell>
                <mxCell id="XPi1vamkfG7UqXMdP8GN-69" value="IS PART" style="rhombus;whiteSpace=wrap;html=1;" parent="GuQFnasYdeO0e7b2p5Jr-1" vertex="1">
                    <mxGeometry x="430" y="1" width="80" height="80" as="geometry"/>
                </mxCell>
            </root>
        </mxGraphModel>
    </diagram>
</mxfile>